<?xml version="1.0" encoding="UTF-8" standalone="no"?>
<svg
   xmlns:dc="http://purl.org/dc/elements/1.1/"
   xmlns:cc="http://creativecommons.org/ns#"
   xmlns:rdf="http://www.w3.org/1999/02/22-rdf-syntax-ns#"
   xmlns:svg="http://www.w3.org/2000/svg"
   xmlns="http://www.w3.org/2000/svg"
   xmlns:sodipodi="http://sodipodi.sourceforge.net/DTD/sodipodi-0.dtd"
   xmlns:inkscape="http://www.inkscape.org/namespaces/inkscape"
   id="open-bible"
   width="50"
   height="40.75"
   viewBox="0 0 50 40.75"
   version="1.1"
   inkscape:version="0.91 r13725"
   sodipodi:docname="good-book-mono.svg">
  <metadata
     id="metadata12">
    <rdf:RDF>
      <cc:Work
         rdf:about="">
        <dc:format>image/svg+xml</dc:format>
        <dc:type
           rdf:resource="http://purl.org/dc/dcmitype/StillImage" />
        <dc:title></dc:title>
      </cc:Work>
    </rdf:RDF>
  </metadata>
  <defs
     id="defs10" />
  <sodipodi:namedview
     pagecolor="#ffffff"
     bordercolor="#666666"
     borderopacity="1"
     objecttolerance="10"
     gridtolerance="10"
     guidetolerance="10"
     inkscape:pageopacity="0"
     inkscape:pageshadow="2"
     inkscape:window-width="1859"
     inkscape:window-height="1056"
     id="namedview8"
     showgrid="false"
     inkscape:zoom="22.627417"
     inkscape:cx="24.093878"
     inkscape:cy="18.188833"
     inkscape:window-x="61"
     inkscape:window-y="24"
     inkscape:window-maximized="1"
     inkscape:current-layer="g3333" />
  <g
     id="g3333"
     transform="translate(0.21583734,1.4929316e-7)">
    <path
       style="fill:none; stroke: black;"
       d="m 23.734781,39.940365 c -0.253186,-0.185133 -1.219065,-1.9411 -2.022194,-3.676341 -1.174281,-2.537149 -1.800929,-4.747524 -1.800929,-6.352402 0,-0.506345 -0.05011,-0.844722 -0.125098,-0.844722 -0.258136,0 -2.154303,2.032411 -3.217441,3.448622 -1.442732,1.921868 -1.236896,1.911069 -3.494729,0.183361 -0.626749,-0.479594 -1.369807,-1.047665 -1.651238,-1.26238 C 10.941195,31.068797 5.5345093,25.666722 3.6178629,23.63787 3.0377919,23.023841 2.5124008,22.596325 2.0741368,22.381729 0.8662176,21.790268 0.8034903,20.997224 1.8625112,19.706203 2.3256862,19.141561 2.3633608,19.047418 2.262376,18.707008 2.0519967,17.997842 1.8003106,16.05163 1.7996038,15.128533 L 1.7988967,14.204965 2.6085731,13.638343 C 3.0538951,13.326702 3.463076,13.033546 3.517864,12.986887 3.572652,12.940227 3.374779,12.396297 3.0781462,11.778154 2.48363,10.539262 2.2787049,9.7441273 2.2787049,8.6762234 2.2787049,8.2875225 2.2247265,7.9361339 2.1587528,7.89536 2.0927792,7.854586 2.0388008,7.7434435 2.0388008,7.6483766 c 0,-0.3689589 0.4409098,-0.1407243 1.1347771,0.5874112 0.8555074,0.8977585 1.5292102,1.1980414 3.1814069,1.4180163 0.8500316,0.1131741 1.3577182,0.1120524 2.3711238,-0.00524 1.1979078,-0.1386448 1.3874894,-0.1989029 2.6689524,-0.8483216 1.699884,-0.8614653 3.139573,-1.3768566 4.364965,-1.5626055 2.139527,-0.3243164 4.791728,0.4830808 7.42598,2.2606553 0.502227,0.3388992 0.957215,0.6161807 1.011087,0.6161807 0.05387,0 0.241811,-0.4723116 0.417647,-1.0495809 0.55419,-1.8193991 1.444048,-2.9088024 2.913874,-3.5672901 0.839068,-0.3759062 1.780318,-0.5930602 4.67813,-1.0792828 3.977207,-0.6673339 6.941952,-1.471413 9.716117,-2.6351422 1.912221,-0.80215473 2.109269,-0.84802472 2.585346,-0.6018357 0.466253,0.2411092 2.143969,1.900879 2.456887,2.4306076 0.184392,0.3121503 0.301055,0.3681654 0.910355,0.4370998 0.728634,0.082435 1.018962,0.2640208 1.130096,0.7068179 0.100397,0.4000086 -0.217709,2.0120021 -1.010108,5.118702 -1.15594,4.5320184 -1.451737,6.1255944 -1.580837,8.5165964 -0.187816,3.478486 -0.361969,3.92579 -1.469175,3.773511 -1.109457,-0.15259 -4.285322,-0.08489 -5.530757,0.117898 -1.234886,0.20107 -3.491477,0.744354 -6.06838,1.460986 -2.324593,0.646468 -2.259788,0.618965 -2.301774,0.976867 -0.07778,0.662992 -1.674841,1.469622 -4.151883,2.096993 -1.138948,0.288465 -1.548398,0.221223 -1.795777,-0.294916 -0.15167,-0.316446 -0.157774,-0.31782 -0.60004,-0.135078 -1.167467,0.482397 -2.57136,1.291209 -2.66396,1.534764 -0.682829,1.795978 0.343281,5.516478 2.705894,9.811109 0.537521,0.977075 0.831816,1.632945 0.763819,1.702256 -0.06882,0.07015 -0.27282,0.0354 -0.539888,-0.09195 -0.486892,-0.232183 -0.651888,-0.182727 -0.654536,0.196193 -0.0029,0.416353 -0.144309,0.568056 -0.373362,0.400568 z"
       id="path3351" />
    <path
       style="fill:#000000"
       d="m 23.607394,39.479899 c -0.468004,-0.721535 -1.462254,-2.707072 -2.060828,-4.115516 -1.000825,-2.354936 -1.288301,-3.448586 -1.363698,-5.187927 -0.0469,-1.08201 -0.104238,-1.469412 -0.217475,-1.469412 -0.301837,0 -2.144187,1.879249 -3.291411,3.35733 -0.641757,0.82684 -1.251937,1.573976 -1.355952,1.660302 -0.246835,0.204854 -0.452049,0.09592 -1.763831,-0.936274 C 12.993423,32.347146 12.291703,31.820876 11.994822,31.618911 11.194826,31.074685 8.4366681,28.380627 5.5174105,25.292035 3.5036986,23.161516 2.7938405,22.488112 2.2787049,22.219651 1.9158499,22.030551 1.517759,21.796113 1.3940585,21.698676 1.1634395,21.517023 1.0862766,20.943137 1.2741064,20.806553 1.5116668,20.633807 2.550054,19.176426 2.6597195,18.86184 2.8234398,18.392191 4.7114398,16.74997 6.3079512,15.688531 7.03963,15.202076 7.8432585,14.572079 8.0937924,14.288539 c 0.9520164,-1.077438 2.0346456,-1.912354 3.2412926,-2.499661 1.846882,-0.898925 2.912928,-1.213934 4.1298,-1.220326 1.243145,-0.0065 1.896464,0.153793 2.767444,0.679127 0.362855,0.218856 0.947267,0.458575 1.298696,0.532707 0.757491,0.15979 1.022954,0.28908 1.570436,0.764852 0.37425,0.325232 0.463411,0.349946 1.019593,0.282608 0.335212,-0.04058 0.877144,-0.141407 1.204294,-0.224049 0.479017,-0.121006 0.607796,-0.20864 0.661487,-0.450139 0.09625,-0.432943 1.034031,-0.873936 1.858435,-0.873936 l 0.637422,0 0.213912,-0.790261 c 0.80877,-2.9878327 2.752699,-4.6322676 6.252203,-5.2889477 0.383549,-0.071973 1.670332,-0.1824051 2.859518,-0.2454053 2.544752,-0.1348148 3.46145,-0.3376411 5.231089,-1.1574163 1.122933,-0.5201923 1.342609,-0.5801438 2.269036,-0.6192406 1.215713,-0.051305 1.944128,0.1182418 2.376701,0.5532041 0.222914,0.2241447 0.457506,0.3249362 0.795888,0.3419508 0.636011,0.03198 1.712956,0.2431486 2.138064,0.4192339 0.319184,0.1322107 0.337905,0.1775882 0.285665,0.6924327 -0.03075,0.3030225 -0.463364,2.1163246 -0.961371,4.0295601 -1.286348,4.9418753 -1.633419,6.7455443 -1.765615,9.1755583 -0.12719,2.338034 -0.206701,2.966007 -0.418726,3.307074 -0.148796,0.239356 -0.232412,0.245921 -2.534817,0.199013 -3.283699,-0.0669 -4.718438,0.182317 -10.717615,1.861655 l -1.619353,0.453303 -0.03785,0.392047 c -0.05064,0.524487 -0.589968,0.872671 -2.260923,1.459612 -2.431605,0.854128 -3.150397,0.906353 -3.380725,0.245631 -0.06913,-0.19832 -0.167337,-0.36058 -0.218228,-0.36058 -0.05089,0 -0.807896,0.353013 -1.682234,0.784473 -1.564203,0.77189 -1.591981,0.792574 -1.731612,1.289485 -0.209797,0.746609 -0.15321,2.406919 0.117551,3.449029 0.477179,1.836581 1.478658,4.210221 2.775456,6.578204 0.560207,1.022947 0.591094,1.117763 0.338757,1.039896 -0.752216,-0.232124 -0.817357,-0.226585 -0.819274,0.06965 -0.0032,0.490729 -0.176142,0.636544 -0.380795,0.321016 z"
       id="path3345"
       inkscape:connector-curvature="0"
       sodipodi:nodetypes="cssssssssssssssscssscssscsssssssssssssscsscsssssscc" />
    <g
       id="g3340" />
  </g>
</svg>
