<?xml version="1.0" encoding="UTF-8" standalone="no"?>
<svg
   xmlns:dc="http://purl.org/dc/elements/1.1/"
   xmlns:cc="http://creativecommons.org/ns#"
   xmlns:rdf="http://www.w3.org/1999/02/22-rdf-syntax-ns#"
   xmlns:svg="http://www.w3.org/2000/svg"
   xmlns="http://www.w3.org/2000/svg"
   xmlns:sodipodi="http://sodipodi.sourceforge.net/DTD/sodipodi-0.dtd"
   xmlns:inkscape="http://www.inkscape.org/namespaces/inkscape"
   id="open-bible"
   width="50"
   height="40.75"
   viewBox="0 0 50 40.75"
   version="1.1"
   inkscape:version="0.91 r13725"
   sodipodi:docname="good-book.svg">
  <metadata
     id="metadata12">
    <rdf:RDF>
      <cc:Work
         rdf:about="">
        <dc:format>image/svg+xml</dc:format>
        <dc:type
           rdf:resource="http://purl.org/dc/dcmitype/StillImage" />
        <dc:title></dc:title>
      </cc:Work>
    </rdf:RDF>
  </metadata>
  <defs
     id="defs10" />
  <sodipodi:namedview
     pagecolor="#ffffff"
     bordercolor="#666666"
     borderopacity="1"
     objecttolerance="10"
     gridtolerance="10"
     guidetolerance="10"
     inkscape:pageopacity="0"
     inkscape:pageshadow="2"
     inkscape:window-width="1859"
     inkscape:window-height="1056"
     id="namedview8"
     showgrid="false"
     inkscape:zoom="22.627417"
     inkscape:cx="24.318959"
     inkscape:cy="18.194113"
     inkscape:window-x="61"
     inkscape:window-y="24"
     inkscape:window-maximized="1"
     inkscape:current-layer="g3333" />
  <g
     id="g3333"
     transform="translate(0.21583734,1.4929316e-7)">
    <path
       style="fill:#ebd6a3"
       d="m 23.734781,39.940365 c -0.253186,-0.185133 -1.219065,-1.9411 -2.022194,-3.676341 -1.174281,-2.537149 -1.800929,-4.747524 -1.800929,-6.352402 0,-0.506345 -0.05011,-0.844722 -0.125098,-0.844722 -0.258136,0 -2.154303,2.032411 -3.217441,3.448622 -1.442732,1.921868 -1.236896,1.911069 -3.494729,0.183361 -0.626749,-0.479594 -1.369807,-1.047665 -1.651238,-1.26238 C 10.941195,31.068797 5.5345093,25.666722 3.6178629,23.63787 3.0377919,23.023841 2.5124008,22.596325 2.0741368,22.381729 0.8662176,21.790268 0.8034903,20.997224 1.8625112,19.706203 2.3256862,19.141561 2.3633608,19.047418 2.262376,18.707008 2.0519967,17.997842 1.8003106,16.05163 1.7996038,15.128533 L 1.7988967,14.204965 2.6085731,13.638343 C 3.0538951,13.326702 3.463076,13.033546 3.517864,12.986887 3.572652,12.940227 3.374779,12.396297 3.0781462,11.778154 2.48363,10.539262 2.2787049,9.7441273 2.2787049,8.6762234 2.2787049,8.2875225 2.2247265,7.9361339 2.1587528,7.89536 2.0927792,7.854586 2.0388008,7.7434435 2.0388008,7.6483766 c 0,-0.3689589 0.4409098,-0.1407243 1.1347771,0.5874112 0.8555074,0.8977585 1.5292102,1.1980414 3.1814069,1.4180163 0.8500316,0.1131741 1.3577182,0.1120524 2.3711238,-0.00524 1.1979078,-0.1386448 1.3874894,-0.1989029 2.6689524,-0.8483216 1.699884,-0.8614653 3.139573,-1.3768566 4.364965,-1.5626055 2.139527,-0.3243164 4.791728,0.4830808 7.42598,2.2606553 0.502227,0.3388992 0.957215,0.6161807 1.011087,0.6161807 0.05387,0 0.241811,-0.4723116 0.417647,-1.0495809 0.55419,-1.8193991 1.444048,-2.9088024 2.913874,-3.5672901 0.839068,-0.3759062 1.780318,-0.5930602 4.67813,-1.0792828 3.977207,-0.6673339 6.941952,-1.471413 9.716117,-2.6351422 1.912221,-0.80215473 2.109269,-0.84802472 2.585346,-0.6018357 0.466253,0.2411092 2.143969,1.900879 2.456887,2.4306076 0.184392,0.3121503 0.301055,0.3681654 0.910355,0.4370998 0.728634,0.082435 1.018962,0.2640208 1.130096,0.7068179 0.100397,0.4000086 -0.217709,2.0120021 -1.010108,5.118702 -1.15594,4.5320184 -1.451737,6.1255944 -1.580837,8.5165964 -0.187816,3.478486 -0.361969,3.92579 -1.469175,3.773511 -1.109457,-0.15259 -4.285322,-0.08489 -5.530757,0.117898 -1.234886,0.20107 -3.491477,0.744354 -6.06838,1.460986 -2.324593,0.646468 -2.259788,0.618965 -2.301774,0.976867 -0.07778,0.662992 -1.674841,1.469622 -4.151883,2.096993 -1.138948,0.288465 -1.548398,0.221223 -1.795777,-0.294916 -0.15167,-0.316446 -0.157774,-0.31782 -0.60004,-0.135078 -1.167467,0.482397 -2.57136,1.291209 -2.66396,1.534764 -0.682829,1.795978 0.343281,5.516478 2.705894,9.811109 0.537521,0.977075 0.831816,1.632945 0.763819,1.702256 -0.06882,0.07015 -0.27282,0.0354 -0.539888,-0.09195 -0.486892,-0.232183 -0.651888,-0.182727 -0.654536,0.196193 -0.0029,0.416353 -0.144309,0.568056 -0.373362,0.400568 z"
       id="path3351" />
    <path
       style="fill:#da8f00"
       d="m 23.607394,39.479899 c -0.468004,-0.721535 -1.462254,-2.707072 -2.060828,-4.115516 -1.000825,-2.354936 -1.288301,-3.448586 -1.363698,-5.187927 -0.0469,-1.08201 -0.104238,-1.469412 -0.217475,-1.469412 -0.301837,0 -2.144187,1.879249 -3.291411,3.35733 -0.641757,0.82684 -1.251937,1.573976 -1.355952,1.660302 -0.246835,0.204854 -0.452049,0.09592 -1.763831,-0.936274 C 12.993423,32.347146 12.291703,31.820876 11.994822,31.618911 11.194826,31.074685 8.4366681,28.380627 5.5174105,25.292035 3.5036986,23.161516 2.7938405,22.488112 2.2787049,22.219651 1.9158499,22.030551 1.517759,21.796113 1.3940585,21.698676 1.1634395,21.517023 1.0862766,20.943137 1.2741064,20.806553 1.5116668,20.633807 2.550054,19.176426 2.6597195,18.86184 2.8234398,18.392191 4.7114398,16.74997 6.3079512,15.688531 7.03963,15.202076 7.8432585,14.572079 8.0937924,14.288539 c 0.9520164,-1.077438 2.0346456,-1.912354 3.2412926,-2.499661 1.846882,-0.898925 2.912928,-1.213934 4.1298,-1.220326 1.243145,-0.0065 1.896464,0.153793 2.767444,0.679127 0.362855,0.218856 0.947267,0.458575 1.298696,0.532707 0.757491,0.15979 1.022954,0.28908 1.570436,0.764852 0.37425,0.325232 0.463411,0.349946 1.019593,0.282608 0.335212,-0.04058 0.877144,-0.141407 1.204294,-0.224049 0.479017,-0.121006 0.607796,-0.20864 0.661487,-0.450139 0.09625,-0.432943 1.034031,-0.873936 1.858435,-0.873936 l 0.637422,0 0.213912,-0.790261 c 0.80877,-2.9878327 2.752699,-4.6322676 6.252203,-5.2889477 0.383549,-0.071973 1.670332,-0.1824051 2.859518,-0.2454053 2.544752,-0.1348148 3.46145,-0.3376411 5.231089,-1.1574163 1.122933,-0.5201923 1.342609,-0.5801438 2.269036,-0.6192406 1.215713,-0.051305 1.944128,0.1182418 2.376701,0.5532041 0.222914,0.2241447 0.457506,0.3249362 0.795888,0.3419508 0.636011,0.03198 1.712956,0.2431486 2.138064,0.4192339 0.319184,0.1322107 0.337905,0.1775882 0.285665,0.6924327 -0.03075,0.3030225 -0.463364,2.1163246 -0.961371,4.0295601 -1.286348,4.9418753 -1.633419,6.7455443 -1.765615,9.1755583 -0.12719,2.338034 -0.206701,2.966007 -0.418726,3.307074 -0.148796,0.239356 -0.232412,0.245921 -2.534817,0.199013 -3.283699,-0.0669 -4.718438,0.182317 -10.717615,1.861655 l -1.619353,0.453303 -0.03785,0.392047 c -0.05064,0.524487 -0.589968,0.872671 -2.260923,1.459612 -2.431605,0.854128 -3.150397,0.906353 -3.380725,0.245631 -0.06913,-0.19832 -0.167337,-0.36058 -0.218228,-0.36058 -0.05089,0 -0.807896,0.353013 -1.682234,0.784473 -1.564203,0.77189 -1.591981,0.792574 -1.731612,1.289485 -0.209797,0.746609 -0.15321,2.406919 0.117551,3.449029 0.477179,1.836581 1.478658,4.210221 2.775456,6.578204 0.560207,1.022947 0.591094,1.117763 0.338757,1.039896 -0.752216,-0.232124 -0.817357,-0.226585 -0.819274,0.06965 -0.0032,0.490729 -0.176142,0.636544 -0.380797,0.321021 z M 5.5174105,12.029299 c 0.09896,-0.06534 0.7432194,-0.455432 1.4316864,-0.866872 0.688467,-0.411441 1.2369095,-0.7972 1.2187609,-0.857243 -0.050879,-0.168328 0.2418205,-0.288268 0.9244786,-0.3788255 1.1923516,-0.158171 0.7658542,0.1259115 -2.3754053,1.5822195 -0.7586968,0.351736 -1.298481,0.586061 -1.1995206,0.520721 z"
       id="path3345" />
    <g
       id="g3340">
      <path
         sodipodi:nodetypes="cssssssssscssccsscscsssssssscsscsscssccssssccssscccssccssssscsscscscsscssc"
         inkscape:connector-curvature="0"
         id="path3339"
         d="M 14.190934,33.243079 C 13.741769,32.900504 12.861475,32.228614 12.234726,31.749991 11.219607,30.974787 6.3308417,26.165626 3.8793117,23.530631 3.4095078,23.025669 2.8706734,22.518372 2.6819018,22.403307 1.1635256,21.477786 0.99875548,21.278947 1.3711766,20.821566 c 0.094622,-0.116208 0.4732452,-0.589136 0.8413846,-1.050951 1.3879769,-1.741159 4.1076326,-3.875358 6.4121443,-5.031811 1.0766037,-0.540262 5.0819665,-2.03013 6.6936505,-2.489826 0.704722,-0.201006 1.259481,-0.267512 2.254237,-0.270246 1.74963,-0.0048 2.583935,0.191683 3.208493,0.755647 0.429944,0.388232 0.556613,0.437939 1.097783,0.430788 0.336467,-0.0045 1.140034,-0.134707 1.785706,-0.289468 0.707774,-0.169646 1.217246,-0.237885 1.282986,-0.171844 0.148745,0.149428 0.719431,2.421938 0.720338,2.868437 3.6e-4,0.197921 -0.107062,0.91505 -0.23881,1.593619 0,0 -2.341078,4.544267 -2.08691,4.615087 0.613426,0.170924 0.613426,0.170924 0.937026,0.293977 0.108271,0.04117 2.902756,-5.590838 2.881709,-5.606263 -0.04348,-0.792067 -0.2798,-2.767672 -0.406453,-3.295461 -0.126654,-0.527789 -0.193207,-0.99358 -0.147895,-1.03509 0.04531,-0.04151 0.289432,-0.141687 0.542492,-0.222614 0.700828,-0.224122 1.234054,-0.761342 1.465821,-1.476799 0.111205,-0.343285 0.364436,-0.7957024 0.562735,-1.0053714 0.95087,-1.0053878 3.269637,-1.8006086 8.329261,-2.8565184 1.13059,-0.2359464 3.423366,-0.8067134 5.095058,-1.268371 2.46717,-0.6813376 3.266524,-0.8531058 4.24552,-0.9122916 1.005571,-0.060793 1.279768,-0.037946 1.649341,0.1374277 0.379115,0.1799025 0.443262,0.2676729 0.443262,0.6065106 0,0.2178928 -0.04569,0.4141615 -0.101543,0.4361528 -0.12242,0.048204 -1.809462,6.8439493 -2.243281,9.0363893 -0.185528,0.937627 -0.354061,2.348521 -0.422684,3.538586 -0.128156,2.222433 -0.28436,3.459705 -0.458806,3.634152 -0.06917,0.06916 -1.367104,0.127934 -3.153731,0.142799 -2.771322,0.02306 -3.151529,0.05183 -4.358295,0.329855 -1.413392,0.325627 -7.116915,1.865761 -7.277933,1.965274 -0.05307,0.0328 -0.09649,0.217617 -0.09649,0.410709 0,0.476736 -0.577973,0.845662 -2.238795,1.429044 -2.431605,0.854128 -3.150397,0.906353 -3.380725,0.245631 -0.06913,-0.19832 -0.168991,-0.360327 -0.221903,-0.360019 -0.05291,3.6e-4 -0.765367,0.325249 -1.583234,0.722088 -0.817867,0.396839 -1.505985,0.702571 -1.529151,0.679405 -0.161634,-0.161636 1.047072,-2.890117 1.926134,-4.347977 0.347821,-0.576836 0.582911,-0.857403 0.476151,-0.919931 -0.0451,-0.02641 -0.157116,-0.07844 -0.320165,-0.13037 -0.218359,-0.05561 -0.645382,-0.191395 -0.667492,-0.166975 -0.57896,0.639267 -2.732461,5.074203 -2.920608,5.985124 -0.132095,0.639538 -0.204666,0.756528 -0.691553,1.114839 -0.811938,0.597525 -2.241439,2.124863 -3.282828,3.50751 -0.50802,0.674497 -1.027587,1.28197 -1.154593,1.349942 -0.670063,-0.128655 -0.544856,-0.184252 -1.047597,-0.499283 z M 38.352729,20.599084 c 0.480546,-0.133509 0.641027,-0.237281 0.682806,-0.441523 0.03004,-0.146847 0.0884,-1.319574 0.129683,-2.60606 0.04129,-1.286486 0.117277,-2.382255 0.168869,-2.435042 0.07581,-0.07756 1.459269,-0.436623 3.338474,-0.866454 0.258794,-0.05919 0.269892,-0.113427 0.269892,-1.318944 0,-0.909345 -0.04049,-1.257211 -0.146348,-1.257211 -0.08049,0 -0.837583,0.167176 -1.682423,0.371503 -0.84484,0.204326 -1.620811,0.338985 -1.72438,0.299242 -0.158392,-0.06078 -0.182187,-0.277004 -0.14979,-1.361107 l 0.03852,-1.288847 -0.476863,0.035649 c -0.540567,0.040411 -2.193816,0.460296 -2.797471,0.71049 l -0.401373,0.166355 0.09831,0.863226 c 0.05407,0.474774 0.09974,1.128263 0.101493,1.452197 0.0036,0.67154 0.241736,0.533187 -2.178797,1.265977 -0.834712,0.252698 -1.242802,0.435692 -1.286817,0.577026 -0.07615,0.244505 0.212472,1.55681 0.379023,1.723361 0.07398,0.07398 0.636433,-0.01606 1.565612,-0.250643 1.75269,-0.442487 1.921294,-0.450609 1.997312,-0.09621 0.0741,0.345432 0.390629,2.689637 0.489953,3.62855 0.119294,1.12768 0.139529,1.165524 0.576666,1.078521 0.208703,-0.04154 0.662146,-0.15406 1.007649,-0.250056 z"
         style="fill:#6c2c0d" />
    </g>
    <path
       style="fill:#361506"
       d="m 14.314671,33.165197 c -0.90201,-0.714532 -1.022335,-0.959858 -0.197282,-0.402228 0.408715,0.27624 0.847497,0.502253 0.975071,0.502253 0.225157,0 1.580492,-1.640607 1.580492,-1.913156 0,-0.0668 -0.148441,-0.152963 -0.329868,-0.19147 -0.181428,-0.03851 -0.62675,-0.179124 -0.989605,-0.312485 -0.362855,-0.13336 -1.19952,-0.417983 -1.859256,-0.632496 -2.0394,-0.663108 -2.339066,-0.931874 -2.339066,-2.097875 0,-0.808914 0.341883,-1.67058 1.276016,-3.216015 1.229217,-2.033623 1.74092,-2.464906 3.192235,-2.690537 1.640818,-0.255092 3.449809,0.247995 4.740303,1.318296 0.312147,0.258886 0.688991,0.533042 0.837431,0.609238 0.361561,0.18559 0.342933,0.346341 -0.152875,1.319224 -0.515074,1.010688 -0.896705,2.091889 -0.896705,2.540458 0,0.269054 -0.170704,0.472861 -0.884777,1.056351 -0.999704,0.816886 -2.191862,2.12829 -3.253569,3.579002 -0.395842,0.540877 -0.809328,0.985193 -0.918857,0.987368 -0.109529,0.0022 -0.460389,-0.202993 -0.779688,-0.455928 z m 7.794772,-6.16747 c 0.03537,-0.08247 0.249946,-0.581768 0.476829,-1.109557 0.226882,-0.527789 0.705163,-1.472412 1.062847,-2.099161 0.357684,-0.62675 0.718243,-1.296197 0.801244,-1.487661 0.083,-0.191463 0.193237,-0.29942 0.244968,-0.239904 0.08696,0.100048 0.732454,2.438503 0.998361,3.61681 0.105672,0.468263 0.146003,0.509796 0.495033,0.509796 0.481831,0 3.594559,-1.031632 3.919039,-1.298862 l 0.2435,-0.200539 -0.238598,-0.82811 c -0.317875,-1.103262 -0.449603,-2.15164 -0.657079,-5.229469 -0.09562,-1.418433 -0.239501,-3.429007 -0.319744,-4.467943 -0.128291,-1.661008 -0.123436,-1.936055 0.04023,-2.27909 0.102372,-0.214563 0.233689,-0.55205 0.291816,-0.749971 0.08032,-0.273493 0.176399,-0.359856 0.400335,-0.359856 0.224742,0 0.365928,0.128069 0.595069,0.539784 0.290622,0.522187 0.302868,0.635592 0.375631,3.47861 0.08275,3.233241 0.176323,3.715504 0.956951,4.932008 0.764323,1.191093 1.699305,1.790305 3.156816,2.023144 0.452516,0.07229 0.979698,0.212593 1.171515,0.311785 0.31933,0.165132 0.462293,0.155053 1.694257,-0.119458 0.740024,-0.164893 1.825553,-0.358607 2.412287,-0.430473 1.111248,-0.136112 5.471967,-0.148739 5.468761,-0.01584 -0.0079,0.326712 -0.225461,0.358615 -1.722337,0.252534 -1.716552,-0.121647 -3.935234,0.0039 -5.429844,0.307335 -1.005204,0.204054 -5.206787,1.31141 -6.850385,1.805465 -0.934461,0.280893 -0.989605,0.31627 -0.989605,0.634878 0,0.185575 -0.09446,0.42059 -0.209916,0.522254 -0.575129,0.506439 -3.089118,1.435933 -4.328378,1.600327 l -0.619008,0.08211 -0.181855,-0.435243 c -0.100022,-0.239384 -0.263,-0.435244 -0.362174,-0.435244 -0.09917,0 -0.77228,0.296881 -1.495792,0.659736 -1.4108,0.707542 -1.499435,0.7398 -1.400777,0.509797 z m 0.561112,-5.843778 c 0,-1.255572 -0.35319,-2.625841 -0.920291,-3.57045 -0.549262,-0.914893 -0.879091,-1.252554 -1.986649,-2.03383 -1.171826,-0.82661 -1.411334,-1.12697 -1.411334,-1.769908 0,-0.653586 0.220242,-0.946868 0.700795,-0.933205 0.398803,0.01134 1.315943,0.459911 1.843653,0.90173 0.511406,0.428167 3.21137,5.641006 3.212429,6.202257 3.6e-4,0.181822 -0.951951,1.710467 -1.267675,2.034901 -0.148311,0.152402 -0.170928,0.04238 -0.170928,-0.831495 z"
       id="path3335" />
  </g>
</svg>
